<svg xmlns="http://www.w3.org/2000/svg" width="800" height="56" viewBox="0 0 800 56">
  <defs>
    <linearGradient id="snowCapGradMed" x1="0%" y1="0%" x2="0%" y2="100%">
      <stop offset="0%" stop-color="#FFFFFF"/>
      <stop offset="50%" stop-color="#FFFFFF"/>
      <stop offset="100%" stop-color="#E9F3FF"/>
    </linearGradient>
  </defs>
  
  <!-- Main snow cap - thicker bumps -->
  <path d="M0,0 L0,32 
           Q20,38 40,35 Q65,42 90,34 Q115,26 140,35 Q165,44 190,36 
           Q215,28 240,35 Q265,42 290,34 Q315,26 340,35 Q365,44 390,36
           Q415,28 440,35 Q465,42 490,34 Q515,26 540,35 Q565,44 590,36
           Q615,28 640,35 Q665,42 690,34 Q715,26 740,35 Q765,44 790,36 Q798,34 800,32
           L800,0 Z" 
        fill="url(#snowCapGradMed)"/>
  
  <!-- Middle highlight layer -->
  <path d="M0,0 L0,26 
           Q20,32 40,29 Q65,36 90,28 Q115,20 140,29 Q165,38 190,30 
           Q215,22 240,29 Q265,36 290,28 Q315,20 340,29 Q365,38 390,30
           Q415,22 440,29 Q465,36 490,28 Q515,20 540,29 Q565,38 590,30
           Q615,22 640,29 Q665,36 690,28 Q715,20 740,29 Q765,38 790,30 Q798,28 800,26
           L800,0 Z" 
        fill="#F7FBFF"/>
  
  <!-- Top highlight -->
  <path d="M0,0 L0,18 
           Q20,22 40,20 Q65,26 90,19 Q115,12 140,20 Q165,28 190,21 
           Q215,14 240,20 Q265,26 290,19 Q315,12 340,20 Q365,28 390,21
           Q415,14 440,20 Q465,26 490,19 Q515,12 540,20 Q565,28 590,21
           Q615,14 640,20 Q665,26 690,19 Q715,12 740,20 Q765,28 790,21 Q798,19 800,18
           L800,0 Z" 
        fill="#FFFFFF"/>
  
  <!-- Bottom edge line -->
  <path d="M0,32 
           Q20,38 40,35 Q65,42 90,34 Q115,26 140,35 Q165,44 190,36 
           Q215,28 240,35 Q265,42 290,34 Q315,26 340,35 Q365,44 390,36
           Q415,28 440,35 Q465,42 490,34 Q515,26 540,35 Q565,44 590,36
           Q615,28 640,35 Q665,42 690,34 Q715,26 740,35 Q765,44 790,36 Q798,34 800,32" 
        fill="none" stroke="#CFE7FF" stroke-width="0.6" stroke-opacity="0.4"/>
</svg>
