<svg xmlns="http://www.w3.org/2000/svg" width="800" height="40" viewBox="0 0 800 40">
  <defs>
    <linearGradient id="snowCapGradLight" x1="0%" y1="0%" x2="0%" y2="100%">
      <stop offset="0%" stop-color="#FFFFFF"/>
      <stop offset="60%" stop-color="#FFFFFF"/>
      <stop offset="100%" stop-color="#E9F3FF"/>
    </linearGradient>
  </defs>
  
  <!-- Main snow cap with gentle rounded bumps -->
  <path d="M0,0 L0,22 
           Q15,26 30,24 Q50,28 70,23 Q90,19 110,24 Q130,29 150,25 
           Q170,21 190,24 Q210,28 230,23 Q250,19 270,24 Q290,29 310,25
           Q330,21 350,24 Q370,28 390,23 Q410,19 430,24 Q450,29 470,25
           Q490,21 510,24 Q530,28 550,23 Q570,19 590,24 Q610,29 630,25
           Q650,21 670,24 Q690,28 710,23 Q730,19 750,24 Q770,29 790,25 Q798,23 800,22
           L800,0 Z" 
        fill="url(#snowCapGradLight)"/>
  
  <!-- Highlight bumps on top -->
  <path d="M0,0 L0,18 
           Q15,22 30,20 Q50,24 70,19 Q90,15 110,20 Q130,25 150,21 
           Q170,17 190,20 Q210,24 230,19 Q250,15 270,20 Q290,25 310,21
           Q330,17 350,20 Q370,24 390,19 Q410,15 430,20 Q450,25 470,21
           Q490,17 510,20 Q530,24 550,19 Q570,15 590,20 Q610,25 630,21
           Q650,17 670,20 Q690,24 710,19 Q730,15 750,20 Q770,25 790,21 Q798,19 800,18
           L800,0 Z" 
        fill="#F7FBFF"/>
  
  <!-- Subtle inner shadow detail -->
  <path d="M0,0 L0,12 
           Q15,15 30,13 Q50,16 70,12 Q90,9 110,13 Q130,17 150,14 
           Q170,10 190,13 Q210,16 230,12 Q250,9 270,13 Q290,17 310,14
           Q330,10 350,13 Q370,16 390,12 Q410,9 430,13 Q450,17 470,14
           Q490,10 510,13 Q530,16 550,12 Q570,9 590,13 Q610,17 630,14
           Q650,10 670,13 Q690,16 710,12 Q730,9 750,13 Q770,17 790,14 Q798,12 800,12
           L800,0 Z" 
        fill="#FFFFFF"/>
  
  <!-- Bottom edge separator -->
  <path d="M0,22 
           Q15,26 30,24 Q50,28 70,23 Q90,19 110,24 Q130,29 150,25 
           Q170,21 190,24 Q210,28 230,23 Q250,19 270,24 Q290,29 310,25
           Q330,21 350,24 Q370,28 390,23 Q410,19 430,24 Q450,29 470,25
           Q490,21 510,24 Q530,28 550,23 Q570,19 590,24 Q610,29 630,25
           Q650,21 670,24 Q690,28 710,23 Q730,19 750,24 Q770,29 790,25 Q798,23 800,22" 
        fill="none" stroke="#CFE7FF" stroke-width="0.5" stroke-opacity="0.4"/>
</svg>
