<svg xmlns="http://www.w3.org/2000/svg" width="800" height="72" viewBox="0 0 800 72">
  <defs>
    <linearGradient id="snowCapGradHeavy" x1="0%" y1="0%" x2="0%" y2="100%">
      <stop offset="0%" stop-color="#FFFFFF"/>
      <stop offset="45%" stop-color="#FFFFFF"/>
      <stop offset="85%" stop-color="#F7FBFF"/>
      <stop offset="100%" stop-color="#E9F3FF"/>
    </linearGradient>
  </defs>
  
  <!-- Main snow cap - large dramatic bumps -->
  <path d="M0,0 L0,44 
           Q25,52 50,48 Q80,58 110,46 Q140,34 170,48 Q200,62 230,50 
           Q260,38 290,48 Q320,58 350,46 Q380,34 410,48 Q440,62 470,50
           Q500,38 530,48 Q560,58 590,46 Q620,34 650,48 Q680,62 710,50
           Q740,38 770,48 Q790,54 800,44
           L800,0 Z" 
        fill="url(#snowCapGradHeavy)"/>
  
  <!-- Secondary highlight layer -->
  <path d="M0,0 L0,36 
           Q25,44 50,40 Q80,50 110,38 Q140,26 170,40 Q200,54 230,42 
           Q260,30 290,40 Q320,50 350,38 Q380,26 410,40 Q440,54 470,42
           Q500,30 530,40 Q560,50 590,38 Q620,26 650,40 Q680,54 710,42
           Q740,30 770,40 Q790,46 800,36
           L800,0 Z" 
        fill="#F7FBFF"/>
  
  <!-- Mid highlight -->
  <path d="M0,0 L0,26 
           Q25,32 50,29 Q80,38 110,27 Q140,16 170,29 Q200,42 230,31 
           Q260,20 290,29 Q320,38 350,27 Q380,16 410,29 Q440,42 470,31
           Q500,20 530,29 Q560,38 590,27 Q620,16 650,29 Q680,42 710,31
           Q740,20 770,29 Q790,34 800,26
           L800,0 Z" 
        fill="#FFFFFF"/>
  
  <!-- Top bright highlight -->
  <path d="M0,0 L0,16 
           Q25,20 50,18 Q80,24 110,17 Q140,10 170,18 Q200,26 230,19 
           Q260,12 290,18 Q320,24 350,17 Q380,10 410,18 Q440,26 470,19
           Q500,12 530,18 Q560,24 590,17 Q620,10 650,18 Q680,26 710,19
           Q740,12 770,18 Q790,22 800,16
           L800,0 Z" 
        fill="#FFFFFF"/>
  
  <!-- Bottom edge separator -->
  <path d="M0,44 
           Q25,52 50,48 Q80,58 110,46 Q140,34 170,48 Q200,62 230,50 
           Q260,38 290,48 Q320,58 350,46 Q380,34 410,48 Q440,62 470,50
           Q500,38 530,48 Q560,58 590,46 Q620,34 650,48 Q680,62 710,50
           Q740,38 770,48 Q790,54 800,44" 
        fill="none" stroke="#CFE7FF" stroke-width="0.7" stroke-opacity="0.4"/>
</svg>
